<svg xmlns="http://www.w3.org/2000/svg" viewBox="0 0 256 257"><defs><linearGradient id="a" x1="-1%" x2="58%" y1="7%" y2="78%"><stop offset="0%" stop-color="#41D1FF"/><stop offset="100%" stop-color="#BD34FE"/></linearGradient><linearGradient id="b" x1="43%" x2="50%" y1="2%" y2="89%"><stop offset="0%" stop-color="#FFEA83"/><stop offset="8%" stop-color="#FFDD35"/><stop offset="100%" stop-color="#FFA800"/></linearGradient></defs><path fill="url(#a)" d="M255 38 135 252c-2 4-8 4-10 0L1 38c-3-5 2-10 7-9l122 22a6 6 0 0 0 2 0l116-22c5-1 10 4 7 9Z"/><path fill="url(#b)" d="M185 1 96 18a3 3 0 0 0-2 3l-5 79a3 3 0 0 0 3 3l25-6c2 0 4 1 3 4l-7 37c0 3 3 5 5 3l16-5c2-1 4 1 4 3l-12 56c-1 4 5 6 7 2l2-4 75-149c1-3-1-6-4-5l-26 5c-2 0-4-2-3-4l17-35c1-3-1-6-5-5Z"/></svg>
